<svg id="visual" viewBox="0 0 540 960" width="540" height="960" xmlns="http://www.w3.org/2000/svg" xmlns:xlink="http://www.w3.org/1999/xlink" version="1.1"><rect x="0" y="0" width="540" height="960" fill="#fff"></rect><defs><linearGradient id="grad1_0" x1="0%" y1="100%" x2="100%" y2="0%"><stop offset="30%" stop-color="#407bff" stop-opacity="1"></stop><stop offset="70%" stop-color="#407bff" stop-opacity="1"></stop></linearGradient></defs><defs><linearGradient id="grad1_1" x1="0%" y1="100%" x2="100%" y2="0%"><stop offset="30%" stop-color="#407bff" stop-opacity="1"></stop><stop offset="70%" stop-color="#b2baff" stop-opacity="1"></stop></linearGradient></defs><defs><linearGradient id="grad1_2" x1="0%" y1="100%" x2="100%" y2="0%"><stop offset="30%" stop-color="#ffffff" stop-opacity="1"></stop><stop offset="70%" stop-color="#b2baff" stop-opacity="1"></stop></linearGradient></defs><defs><linearGradient id="grad2_0" x1="0%" y1="100%" x2="100%" y2="0%"><stop offset="30%" stop-color="#407bff" stop-opacity="1"></stop><stop offset="70%" stop-color="#407bff" stop-opacity="1"></stop></linearGradient></defs><defs><linearGradient id="grad2_1" x1="0%" y1="100%" x2="100%" y2="0%"><stop offset="30%" stop-color="#b2baff" stop-opacity="1"></stop><stop offset="70%" stop-color="#407bff" stop-opacity="1"></stop></linearGradient></defs><defs><linearGradient id="grad2_2" x1="0%" y1="100%" x2="100%" y2="0%"><stop offset="30%" stop-color="#b2baff" stop-opacity="1"></stop><stop offset="70%" stop-color="#ffffff" stop-opacity="1"></stop></linearGradient></defs><g transform="translate(540, 960)"><path d="M-243 0C-242.4 -34.5 -241.7 -69.1 -224.5 -93C-207.3 -116.9 -173.5 -130.1 -149.2 -149.2C-124.9 -168.3 -110.1 -193.1 -86.9 -209.7C-63.6 -226.3 -31.8 -234.7 0 -243L0 0Z" fill="#dadcff"></path><path d="M-162 0C-161.6 -23 -161.1 -46.1 -149.7 -62C-138.2 -77.9 -115.7 -86.8 -99.5 -99.5C-83.3 -112.2 -73.4 -128.7 -57.9 -139.8C-42.4 -150.9 -21.2 -156.4 0 -162L0 0Z" fill="#849aff"></path><path d="M-81 0C-80.8 -11.5 -80.6 -23 -74.8 -31C-69.1 -39 -57.8 -43.4 -49.7 -49.7C-41.6 -56.1 -36.7 -64.4 -29 -69.9C-21.2 -75.4 -10.6 -78.2 0 -81L0 0Z" fill="#407bff"></path></g><g transform="translate(0, 0)"><path d="M243 0C231.7 29.2 220.5 58.3 208.8 86.5C197.1 114.6 185 141.8 166.2 166.2C147.3 190.5 121.8 212.2 93 224.5C64.2 236.8 32.1 239.9 0 243L0 0Z" fill="#dadcff"></path><path d="M162 0C154.5 19.4 147 38.9 139.2 57.7C131.4 76.4 123.3 94.5 110.8 110.8C98.2 127 81.2 141.4 62 149.7C42.8 157.9 21.4 159.9 0 162L0 0Z" fill="#849aff"></path><path d="M81 0C77.2 9.7 73.5 19.4 69.6 28.8C65.7 38.2 61.7 47.3 55.4 55.4C49.1 63.5 40.6 70.7 31 74.8C21.4 78.9 10.7 80 0 81L0 0Z" fill="#407bff"></path></g></svg>